<svg width="225" height="200" viewBox="0 0 225 200" fill="none" xmlns="http://www.w3.org/2000/svg">
<path d="M224.582 100.023C224.582 85.1453 205.951 71.046 177.386 62.3026C183.978 33.1884 181.048 10.0252 168.139 2.60929C165.164 0.869763 161.685 0.0457764 157.885 0.0457764V10.2541C159.991 10.2541 161.685 10.6661 163.104 11.4443C169.329 15.0149 172.03 28.6107 169.924 46.0975C169.421 50.4005 168.597 54.9325 167.59 59.556C158.618 57.3587 148.821 55.6649 138.521 54.5663C132.341 46.0975 125.933 38.407 119.478 31.6777C134.401 17.8073 148.409 10.2083 157.931 10.2083V0C145.342 0 128.862 8.97231 112.2 24.5365C95.5367 9.06386 79.057 0.183109 66.4683 0.183109V10.3914C75.9442 10.3914 89.9977 17.9446 104.921 31.7235C98.5123 38.4527 92.1035 46.0975 86.0151 54.5663C75.6695 55.6649 65.8732 57.3587 56.9009 59.6017C55.848 55.024 55.0698 50.5837 54.5205 46.3264C52.369 28.8395 55.024 15.2438 61.2039 11.6274C62.5773 10.8034 64.3626 10.4372 66.4683 10.4372V0.228885C62.623 0.228885 59.144 1.05287 56.1227 2.7924C43.2593 10.2083 40.3754 33.3257 47.0131 62.3484C18.5397 71.1376 0 85.1911 0 100.023C0 114.9 18.6313 129 47.1962 137.743C40.6043 166.857 43.534 190.021 56.4431 197.436C59.4186 199.176 62.8977 200 66.743 200C79.3317 200 95.8114 191.028 112.474 175.463C129.137 190.936 145.617 199.817 158.206 199.817C162.051 199.817 165.53 198.993 168.551 197.253C181.415 189.837 184.298 166.72 177.661 137.697C206.043 128.954 224.582 114.855 224.582 100.023V100.023ZM164.981 69.4896C163.287 75.3948 161.181 81.4832 158.801 87.5715C156.924 83.9094 154.955 80.2472 152.804 76.585C150.698 72.9229 148.455 69.3522 146.212 65.8732C152.712 66.8345 158.984 68.0247 164.981 69.4896ZM144.015 118.242C140.444 124.422 136.782 130.282 132.982 135.729C126.162 136.324 119.249 136.645 112.291 136.645C105.379 136.645 98.4665 136.324 91.6915 135.775C87.892 130.327 84.184 124.514 80.6134 118.379C77.1344 112.383 73.9757 106.294 71.0918 100.16C73.93 94.0261 77.1344 87.892 80.5677 81.8952C84.1383 75.7153 87.8004 69.8558 91.5999 64.4083C98.4207 63.8132 105.333 63.4928 112.291 63.4928C119.203 63.4928 126.116 63.8132 132.891 64.3626C136.69 69.81 140.398 75.6237 143.969 81.7578C147.448 87.7546 150.607 93.843 153.491 99.9771C150.607 106.111 147.448 112.245 144.015 118.242ZM158.801 112.291C161.273 118.425 163.378 124.559 165.118 130.51C159.121 131.975 152.804 133.211 146.258 134.173C148.501 130.648 150.744 127.031 152.85 123.323C154.955 119.661 156.924 115.953 158.801 112.291ZM112.383 161.135C108.125 156.741 103.868 151.843 99.6567 146.487C103.777 146.67 107.988 146.807 112.245 146.807C116.548 146.807 120.806 146.715 124.971 146.487C120.851 151.843 116.594 156.741 112.383 161.135ZM78.3246 134.173C71.8242 133.211 65.5528 132.021 59.556 130.556C61.2497 124.651 63.3555 118.563 65.7359 112.474C67.6127 116.136 69.5811 119.799 71.7327 123.461C73.8842 127.123 76.0815 130.694 78.3246 134.173ZM112.154 38.9105C116.411 43.3051 120.668 48.2032 124.88 53.5592C120.76 53.3761 116.548 53.2387 112.291 53.2387C107.988 53.2387 103.731 53.3303 99.5651 53.5592C103.685 48.2032 107.942 43.3051 112.154 38.9105ZM78.2788 65.8732C76.0357 69.398 73.7926 73.0144 71.6869 76.7224C69.5811 80.3845 67.6127 84.0467 65.7359 87.7089C63.2639 81.5747 61.1582 75.4406 59.4186 69.4896C65.4154 68.0705 71.7327 66.8345 78.2788 65.8732V65.8732ZM36.8505 123.186C20.6455 116.274 10.1625 107.21 10.1625 100.023C10.1625 92.8359 20.6455 83.7262 36.8505 76.8597C40.7874 75.1659 45.0904 73.6553 49.5308 72.2362C52.1401 81.2085 55.5734 90.547 59.8306 100.114C55.6191 109.636 52.2316 118.929 49.6681 127.855C45.1362 126.436 40.8332 124.88 36.8505 123.186ZM61.4786 188.602C55.2529 185.031 52.5521 171.435 54.6578 153.948C55.1614 149.645 55.9854 145.113 56.9925 140.49C65.9648 142.687 75.7611 144.381 86.0609 145.48C92.2408 153.948 98.6496 161.639 105.104 168.368C90.1808 182.238 76.173 189.837 66.6514 189.837C64.5914 189.792 62.8519 189.38 61.4786 188.602V188.602ZM170.062 153.719C172.213 171.206 169.558 184.802 163.378 188.418C162.005 189.242 160.22 189.609 158.114 189.609C148.638 189.609 134.585 182.055 119.661 168.276C126.07 161.547 132.479 153.902 138.567 145.434C148.913 144.335 158.709 142.641 167.681 140.398C168.734 145.022 169.558 149.462 170.062 153.719V153.719ZM187.686 123.186C183.749 124.88 179.446 126.39 175.006 127.81C172.396 118.837 168.963 109.499 164.706 99.9313C168.917 90.4097 172.305 81.117 174.868 72.1904C179.4 73.6095 183.703 75.1659 187.732 76.8597C203.937 83.772 214.42 92.8359 214.42 100.023C214.374 107.21 203.891 116.32 187.686 123.186V123.186Z" fill="#61DAFB"/>
<path d="M112.246 120.942C123.8 120.942 133.166 111.576 133.166 100.022C133.166 88.4678 123.8 79.1016 112.246 79.1016C100.692 79.1016 91.3257 88.4678 91.3257 100.022C91.3257 111.576 100.692 120.942 112.246 120.942Z" fill="#61DAFB"/>
</svg>
