<svg width="329" height="84" viewBox="0 0 329 84" fill="none" xmlns="http://www.w3.org/2000/svg">
<path d="M47.8376 82.4212C61.0951 59.9351 50.6841 41.378 24.5838 40.9729V40.9729L4.98123 74.2207C2.23018 78.8868 4.39056 82.7375 9.80657 82.8216L47.2587 83.403L47.8376 82.4212Z" fill="url(#paint0_linear_504_243)"/>
<path d="M10.859 0.11778C5.44276 0.0527318 3.17821 3.84197 5.80103 8.58129L47.2235 83.43L67.2348 50.0367C70.1136 45.2329 69.5572 38.6469 65.6903 31.7533L54.5724 11.9331C51.0441 5.64319 42.3944 0.496511 35.2065 0.410187L10.859 0.11778Z" fill="url(#paint1_linear_504_243)"/>
<path fill-rule="evenodd" clip-rule="evenodd" d="M91.7737 56.5856H86.6857V16.224H91.7737V32.3034H92.1097C92.4937 31.4705 93.0057 30.7734 93.6457 30.212C94.0044 29.9011 94.3945 29.6394 94.8077 29.4323C95.1677 29.2489 95.56 29.092 95.9847 28.9615C96.013 28.9527 96.0413 28.944 96.0697 28.9355C96.8283 28.7106 97.7177 28.5729 98.7377 28.5224C99.0402 28.5078 99.3429 28.5006 99.6457 28.5009C100.202 28.499 100.758 28.5247 101.312 28.5778C102.298 28.6759 103.142 28.8675 103.846 29.1527C104.285 29.3266 104.703 29.5612 105.092 29.851C105.556 30.1979 105.956 30.6433 106.27 31.1627C106.814 32.068 107.19 33.1907 107.398 34.5307C107.493 35.1579 107.564 35.7897 107.611 36.424C107.66 37.0767 107.691 37.7708 107.704 38.5064C107.708 38.7565 107.71 39.0066 107.71 39.2567V56.5856H102.574V41.5383C102.574 39.8105 102.523 38.4204 102.421 37.3679C102.416 37.3184 102.411 37.269 102.406 37.2196C102.376 36.9241 102.332 36.6306 102.275 36.3403C102.15 35.7246 101.97 35.2342 101.736 34.869C101.727 34.8557 101.718 34.8425 101.71 34.8294C101.461 34.4626 101.127 34.1809 100.746 34.0157C100.553 33.93 100.353 33.866 100.15 33.8245C99.4617 33.6796 98.5417 33.6072 97.3897 33.6072C96.553 33.6072 95.8293 33.6845 95.2187 33.8392C94.9186 33.9126 94.6251 34.0168 94.3417 34.1504C93.9877 34.3169 93.6582 34.5436 93.3647 34.8226C93.0832 35.0934 92.8454 35.4174 92.6617 35.7801C92.2937 36.5044 92.0537 37.4098 91.9417 38.4962C91.8901 39.0048 91.8518 39.5151 91.8267 40.0263C91.7913 40.7264 91.7737 41.4839 91.7737 42.2988V56.5856Z" fill="#FAFAFA" stroke="#FAFAFA" stroke-width="0.944882" stroke-linecap="round"/>
<path fill-rule="evenodd" clip-rule="evenodd" d="M118.782 67.2328V62.724C119.934 62.7602 120.934 62.7964 121.782 62.8327C122.16 62.849 122.538 62.8641 122.916 62.8779C123.272 62.8908 123.609 62.9017 123.927 62.9107C123.972 62.9119 124.017 62.913 124.062 62.9141C124.34 62.9216 124.619 62.9276 124.898 62.9323C125.236 62.9383 125.55 62.9413 125.838 62.9413C126.342 62.9421 126.846 62.9297 127.35 62.904C128.271 62.8557 129.053 62.7591 129.696 62.6142C129.77 62.5976 129.844 62.5799 129.918 62.5611C130.637 62.377 131.222 62.0978 131.672 61.7236C131.837 61.587 131.99 61.4307 132.126 61.2573C132.387 60.9172 132.591 60.5265 132.729 60.1041C132.839 59.7774 132.922 59.4171 132.978 59.0233C132.991 58.9263 133.003 58.8289 133.014 58.7313C133.057 58.3122 133.09 57.8918 133.113 57.4706C133.159 56.6573 133.182 55.7285 133.182 54.6843V53.0003H132.894C132.574 53.797 132.102 54.4761 131.478 55.0374C131.167 55.3136 130.83 55.5504 130.474 55.7436C130.046 55.9782 129.565 56.1774 129.03 56.3411C128.246 56.5803 127.323 56.7267 126.259 56.7802C125.943 56.7957 125.626 56.8032 125.31 56.8029C123.614 56.8029 122.23 56.5765 121.158 56.1238C120.714 55.9406 120.292 55.6994 119.898 55.4052C119.436 55.0599 119.033 54.6224 118.71 54.1139C118.392 53.6031 118.138 53.0447 117.956 52.4548C117.804 51.9727 117.685 51.4498 117.599 50.8863C117.593 50.8486 117.587 50.8108 117.582 50.7731C117.417 49.6217 117.323 48.3097 117.3 46.837C117.296 46.5918 117.294 46.3466 117.294 46.1013V28.8811H122.382V43.8198C122.382 45.5476 122.433 46.9377 122.535 47.9902C122.54 48.0396 122.545 48.089 122.55 48.1384C122.579 48.4332 122.623 48.726 122.681 49.0155C122.801 49.6048 122.972 50.0744 123.195 50.4245C123.211 50.4506 123.228 50.4762 123.246 50.5015C123.474 50.8256 123.768 51.0826 124.103 51.2507C124.328 51.3654 124.564 51.4512 124.806 51.5064C125.042 51.5612 125.279 51.6042 125.519 51.6354C126.091 51.7124 126.774 51.7509 127.566 51.7509C127.959 51.7521 128.351 51.7325 128.743 51.692C129.128 51.6513 129.483 51.5887 129.807 51.5042C130.091 51.4318 130.369 51.3326 130.638 51.2077C130.979 51.0507 131.298 50.8392 131.586 50.5796C131.89 50.3017 132.147 49.9621 132.342 49.578C132.528 49.2052 132.675 48.8091 132.781 48.3976C132.879 48.0249 132.953 47.6205 133.005 47.1844C133.017 47.0771 133.028 46.9696 133.038 46.8619C133.082 46.3528 133.114 45.8427 133.136 45.3318C133.159 44.8067 133.173 44.2495 133.179 43.6602C133.181 43.4599 133.182 43.2596 133.182 43.0593V28.8811H138.318V53.3262C138.318 55.8975 138.198 58.0976 137.958 59.9264C137.718 61.7553 137.222 63.2491 136.47 64.408C136.003 65.1166 135.411 65.7084 134.733 66.1463C134.246 66.4692 133.697 66.7409 133.086 66.9612C132.517 67.1619 131.936 67.317 131.348 67.4252C130.132 67.6575 128.692 67.7745 127.029 67.776C127.016 67.776 127.003 67.776 126.99 67.776C126.062 67.776 125.094 67.7488 124.086 67.6945C123.078 67.6402 122.118 67.5768 121.206 67.5044C120.826 67.4746 120.447 67.4395 120.069 67.3991C119.722 67.3614 119.394 67.3211 119.085 67.278C118.984 67.2636 118.883 67.2485 118.782 67.2328Z" fill="#FAFAFA" stroke="#FAFAFA" stroke-width="0.944882" stroke-linecap="round"/>
<path fill-rule="evenodd" clip-rule="evenodd" d="M150.99 67.3957H145.902V28.8811H150.606L150.75 32.5751H151.086C151.598 31.4162 152.254 30.538 153.054 29.9404C153.854 29.3429 154.742 28.9445 155.718 28.7453C156.694 28.5461 157.694 28.4465 158.718 28.4465C160.35 28.4465 161.718 28.6729 162.822 29.1256C163.926 29.5783 164.814 30.3388 165.486 31.4071C165.775 31.875 166.021 32.3761 166.218 32.9021C166.414 33.4159 166.586 33.9833 166.734 34.6042C166.826 34.9929 166.906 35.3851 166.974 35.7801C167.294 37.627 167.454 39.9267 167.454 42.679C167.455 43.6207 167.435 44.5622 167.395 45.5027C167.355 46.3862 167.296 47.2082 167.218 47.9687C167.161 48.5259 167.087 49.0807 166.998 49.6323C166.781 50.9489 166.475 52.0678 166.08 52.989C165.929 53.3425 165.755 53.6823 165.558 54.0053C164.902 55.0736 164.03 55.8432 162.942 56.314C162.468 56.5153 161.979 56.6683 161.481 56.7712C160.995 56.8753 160.472 56.9466 159.912 56.9851C159.562 57.0089 159.212 57.0206 158.862 57.0202C158.251 57.0216 157.641 56.988 157.034 56.9194C156.584 56.8686 156.137 56.7935 155.694 56.6942C155.148 56.5736 154.614 56.3892 154.102 56.1442C153.772 55.9851 153.453 55.7967 153.15 55.5806C152.414 55.0555 151.806 54.304 151.326 53.3262H150.99V67.3957ZM156.606 51.8595C156.98 51.8601 157.355 51.8503 157.729 51.8301C158.495 51.7878 159.137 51.6981 159.654 51.5607C159.935 51.4888 160.208 51.3771 160.465 51.228C160.818 51.0235 161.124 50.7281 161.358 50.3657C161.504 50.1319 161.626 49.8788 161.719 49.6119C161.907 49.0853 162.043 48.4312 162.126 47.6495C162.254 46.4363 162.318 44.7976 162.318 42.7334C162.318 42.1297 162.312 41.5261 162.299 40.9226C162.271 39.6868 162.214 38.6516 162.126 37.8172C162.09 37.4684 162.038 37.122 161.971 36.7794C161.829 36.0739 161.627 35.5088 161.365 35.0841C161.362 35.0807 161.36 35.0773 161.358 35.0739C160.974 34.4582 160.406 34.0508 159.654 33.8516C159.395 33.7848 159.134 33.7323 158.872 33.6943C158.283 33.606 157.586 33.5593 156.78 33.554C156.722 33.5534 156.664 33.553 156.606 33.5529C156.213 33.5512 155.82 33.5724 155.43 33.6162C155.036 33.6623 154.676 33.7332 154.348 33.829C154.033 33.9176 153.728 34.0436 153.438 34.2047C152.67 34.6393 152.094 35.2912 151.71 36.1603C151.39 36.9208 151.19 37.8534 151.11 38.9579C151.035 39.9893 150.995 41.1546 150.991 42.4538C150.99 42.547 150.99 42.6402 150.99 42.7334C150.99 44.1819 151.03 45.4404 151.11 46.5088C151.19 47.5771 151.374 48.4734 151.662 49.1977C151.856 49.6879 152.131 50.1321 152.471 50.5071C152.748 50.8065 153.066 51.0523 153.414 51.2348C154.198 51.6513 155.262 51.8595 156.606 51.8595Z" fill="#FAFAFA" stroke="#FAFAFA" stroke-width="0.944882" stroke-linecap="round"/>
<path fill-rule="evenodd" clip-rule="evenodd" d="M194.238 42.7877V44.6346H178.254C178.254 46.2281 178.315 47.5186 178.438 48.5063C178.44 48.5285 178.443 48.5508 178.446 48.573C178.485 48.8934 178.55 49.2092 178.638 49.5169C178.797 50.0639 179.029 50.5098 179.334 50.8546C179.531 51.0725 179.756 51.255 180.002 51.3955C180.414 51.6377 180.928 51.8195 181.542 51.941C181.89 52.0082 182.24 52.0607 182.592 52.0983C183.32 52.1791 184.175 52.2255 185.155 52.2375C185.318 52.2392 185.482 52.24 185.646 52.2398C186.382 52.2398 187.19 52.2217 188.07 52.1855C188.95 52.1493 189.854 52.0768 190.782 51.9682C191.196 51.9198 191.61 51.8731 192.024 51.8278C192.413 51.7848 192.782 51.746 193.13 51.7113C193.179 51.7063 193.228 51.7014 193.278 51.6966V56.2053C192.574 56.3502 191.726 56.486 190.734 56.6127C189.742 56.7395 188.702 56.8391 187.614 56.9115C186.526 56.984 185.486 57.0202 184.494 57.0202C182.414 57.0202 180.686 56.8663 179.31 56.5584C178.824 56.4522 178.345 56.3085 177.877 56.1284C177.144 55.8424 176.518 55.4788 175.998 55.0374C175.166 54.3312 174.542 53.4258 174.126 52.3213C173.766 51.3676 173.515 50.2385 173.371 48.934C173.347 48.7236 173.327 48.5127 173.31 48.3014C173.182 46.7261 173.118 44.8882 173.118 42.7877C173.118 40.8743 173.183 39.1628 173.315 37.6531C173.353 37.2088 173.399 36.7654 173.454 36.3233C173.537 35.6296 173.668 34.9443 173.846 34.2738C174.048 33.5246 174.305 32.8493 174.619 32.248C174.691 32.1099 174.766 31.9744 174.846 31.8417C175.293 31.1065 175.879 30.4936 176.563 30.0479C177.011 29.7469 177.517 29.4915 178.079 29.2818C178.097 29.2749 178.115 29.2681 178.134 29.2614C178.694 29.0612 179.267 28.9062 179.847 28.7974C180.449 28.6804 181.105 28.5929 181.816 28.5348C182.579 28.4741 183.344 28.4447 184.11 28.4466C184.739 28.4453 185.369 28.4656 185.998 28.5077C186.594 28.5492 187.147 28.6114 187.658 28.6944C188.079 28.7611 188.496 28.8506 188.91 28.9626C189.914 29.2395 190.747 29.6394 191.41 30.1622C191.567 30.2864 191.718 30.4209 191.862 30.5651C192.456 31.1678 192.925 31.9112 193.237 32.7426C193.314 32.9457 193.384 33.1526 193.446 33.3627C193.782 34.5035 193.998 35.8616 194.094 37.4369C194.19 39.0123 194.238 40.7959 194.238 42.7877ZM190.206 40.6691L189.342 41.5383V40.5061C189.342 40.0295 189.334 39.553 189.316 39.0768C189.278 38.1005 189.199 37.2823 189.078 36.6221C188.957 35.9649 188.784 35.4179 188.559 34.9811C188.461 34.7901 188.345 34.6118 188.214 34.4492C187.941 34.1211 187.609 33.8646 187.24 33.6977C187.027 33.5995 186.807 33.5237 186.582 33.4714C186.068 33.3499 185.462 33.2737 184.762 33.2428C184.512 33.232 184.263 33.2267 184.014 33.2269C183.639 33.2263 183.265 33.2361 182.891 33.2564C182.125 33.2994 181.483 33.3891 180.966 33.5257C180.272 33.709 179.735 34.0388 179.355 34.5148C179.323 34.5553 179.292 34.5968 179.262 34.6393C179.085 34.894 178.939 35.1741 178.827 35.4723C178.723 35.7401 178.637 36.0362 178.567 36.3607C178.529 36.537 178.496 36.7148 178.47 36.8937C178.421 37.221 178.383 37.5502 178.356 37.8806C178.29 38.6441 178.256 39.5397 178.254 40.5673C178.254 40.6012 178.254 40.6352 178.254 40.6691H190.206Z" fill="#FAFAFA" stroke="#FAFAFA" stroke-width="0.944882" stroke-linecap="round"/>
<path fill-rule="evenodd" clip-rule="evenodd" d="M208.158 56.5856H203.07V33.7158H198.174V28.8811H203.07V20.8414H208.158V28.8811H213.87V33.7158H208.158V56.5856Z" fill="#FAFAFA" stroke="#FAFAFA" stroke-width="0.944882" stroke-linecap="round"/>
<path fill-rule="evenodd" clip-rule="evenodd" d="M223.902 56.5856H218.814V28.8811H223.902V56.5856ZM224.046 21.9279H218.718V16.224H224.046V21.9279Z" fill="#FAFAFA" stroke="#FAFAFA" stroke-width="0.944882" stroke-linecap="round"/>
<path fill-rule="evenodd" clip-rule="evenodd" d="M232.158 67.2328V62.6697C232.47 62.7031 232.782 62.7314 233.095 62.7546C233.414 62.778 233.75 62.7987 234.103 62.8168C234.222 62.8225 234.342 62.8278 234.462 62.8327C235.326 62.8689 236.19 62.896 237.054 62.9141C237.918 62.9322 238.718 62.9413 239.454 62.9413C239.959 62.9423 240.464 62.931 240.969 62.9073C242.001 62.8568 242.864 62.7504 243.558 62.5882C244.27 62.4222 244.854 62.1657 245.31 61.8186C245.493 61.6807 245.662 61.5197 245.814 61.3388C246.056 61.0407 246.253 60.6982 246.395 60.3259C246.516 60.0173 246.614 59.674 246.688 59.296C246.722 59.1181 246.751 58.9388 246.774 58.7585C246.827 58.3357 246.868 57.9111 246.897 57.4853C246.927 57.0432 246.951 56.566 246.967 56.0537C246.983 55.5069 246.99 54.9598 246.99 54.4127V53.0546H246.702C246.478 53.5505 246.199 54.0121 245.873 54.4285C245.6 54.7738 245.29 55.0788 244.95 55.3362C244.419 55.7322 243.84 56.0391 243.232 56.2472C242.968 56.3392 242.7 56.4159 242.43 56.4769C241.47 56.6942 240.414 56.8029 239.262 56.8029C237.99 56.8029 236.883 56.6708 235.939 56.4068C235.658 56.329 235.381 56.2345 235.11 56.1238C234.006 55.6711 233.118 54.9197 232.446 53.8695C231.92 53.0471 231.506 51.9912 231.206 50.7018C231.119 50.3303 231.045 49.9554 230.982 49.578C230.861 48.8461 230.769 48.1087 230.706 47.3677C230.586 46.0089 230.526 44.4641 230.526 42.7334C230.526 40.7264 230.604 38.9681 230.762 37.4584C230.818 36.9054 230.892 36.3546 230.982 35.8072C231.082 35.1906 231.215 34.5813 231.381 33.9829C231.551 33.3756 231.749 32.8263 231.976 32.3351C232.114 32.032 232.271 31.7401 232.446 31.4614C233.118 30.3931 234.014 29.6235 235.134 29.1527C236.041 28.771 237.127 28.5439 238.392 28.4714C238.697 28.4544 239.003 28.4461 239.31 28.4466C240.27 28.4466 241.246 28.5461 242.238 28.7453C243.23 28.9445 244.134 29.3429 244.95 29.9404C245.525 30.3668 246.016 30.9218 246.395 31.5712C246.584 31.8908 246.75 32.2264 246.894 32.5751H247.182L247.374 28.8811H252.078V53.1633C252.079 54.0878 252.063 55.0122 252.031 55.936C251.978 57.3876 251.882 58.6906 251.742 59.8449C251.661 60.5378 251.528 61.2215 251.345 61.8888C251.079 62.8349 250.716 63.6565 250.254 64.3537C249.782 65.0547 249.191 65.6425 248.517 66.083C248.047 66.3968 247.521 66.6658 246.939 66.8899C246.9 66.9048 246.861 66.9196 246.822 66.934C246.252 67.1394 245.67 67.2983 245.081 67.4093C243.829 67.6538 242.338 67.776 240.606 67.776C239.582 67.776 238.542 67.7488 237.486 67.6945C236.43 67.6402 235.438 67.5678 234.51 67.4772C233.872 67.4154 233.302 67.3573 232.8 67.3029C232.586 67.2802 232.372 67.2568 232.158 67.2328ZM241.326 51.7509C241.71 51.7522 242.093 51.7337 242.476 51.6954C242.866 51.6547 243.224 51.5921 243.55 51.5076C243.857 51.4303 244.157 51.3208 244.446 51.1805C244.798 51.0102 245.126 50.7789 245.416 50.4947C245.706 50.2054 245.947 49.8578 246.126 49.4693C246.332 49.0549 246.493 48.6137 246.605 48.1554C246.705 47.7578 246.779 47.3296 246.827 46.8709C246.834 46.8046 246.84 46.7382 246.846 46.6717C246.919 45.826 246.964 44.8478 246.982 43.7372C246.987 43.3845 246.99 43.0318 246.99 42.679C246.99 42.064 246.981 41.449 246.962 40.8343C246.944 40.2745 246.918 39.7471 246.884 39.2522C246.872 39.0906 246.86 38.9291 246.846 38.7678C246.81 38.3375 246.75 37.9103 246.666 37.489C246.576 37.0544 246.462 36.656 246.322 36.2939C246.276 36.175 246.227 36.058 246.174 35.943C245.79 35.1101 245.206 34.5035 244.422 34.1232C243.852 33.8471 243.152 33.6713 242.32 33.5959C241.989 33.5665 241.657 33.5522 241.326 33.5529C240.96 33.5523 240.594 33.5621 240.229 33.5823C239.501 33.6238 238.884 33.709 238.376 33.8381C238.359 33.8425 238.342 33.847 238.326 33.8516C237.574 34.0508 237.006 34.4582 236.622 35.0739C236.238 35.6895 235.982 36.5949 235.854 37.79C235.726 38.9851 235.662 40.6148 235.662 42.679C235.662 44.6143 235.72 46.1704 235.837 47.3474C235.842 47.4028 235.848 47.4583 235.854 47.5137C235.935 48.272 236.068 48.9137 236.252 49.4388C236.347 49.7181 236.471 49.9836 236.622 50.2298C237.006 50.8455 237.574 51.2529 238.326 51.4521C238.583 51.5187 238.842 51.5712 239.104 51.6094C239.727 51.7037 240.468 51.7509 241.326 51.7509Z" fill="#FAFAFA" stroke="#FAFAFA" stroke-width="0.944882" stroke-linecap="round"/>
<path fill-rule="evenodd" clip-rule="evenodd" d="M259.662 46.21V28.8811H264.75V43.9285C264.75 45.6562 264.801 47.0463 264.903 48.0988C264.907 48.1483 264.912 48.1977 264.918 48.2471C264.947 48.5426 264.991 48.8361 265.049 49.1264C265.173 49.7421 265.353 50.2325 265.588 50.5977C265.596 50.611 265.605 50.6242 265.614 50.6373C265.862 51.0041 266.196 51.2858 266.578 51.451C266.77 51.5367 266.97 51.6007 267.174 51.6422C267.862 51.7871 268.782 51.8595 269.934 51.8595C270.327 51.8608 270.719 51.8411 271.111 51.8007C271.496 51.7599 271.851 51.6973 272.175 51.6128C272.458 51.5404 272.736 51.4412 273.006 51.3163C273.347 51.1593 273.666 50.9478 273.954 50.6882C274.258 50.4104 274.515 50.0707 274.71 49.6866C274.896 49.3138 275.043 48.9177 275.149 48.5062C275.247 48.1335 275.321 47.7291 275.373 47.293C275.385 47.1857 275.396 47.0782 275.406 46.9705C275.45 46.4615 275.482 45.9513 275.504 45.4404C275.527 44.9153 275.541 44.3581 275.547 43.7689C275.549 43.5686 275.55 43.3683 275.55 43.1679V28.8811H280.686V56.5856H275.982L275.79 52.8917H275.454C275.102 53.7608 274.598 54.5032 273.942 55.1189C273.574 55.4599 273.171 55.7484 272.741 55.9778C272.366 56.1808 271.956 56.3555 271.512 56.5018C271.482 56.5118 271.452 56.5216 271.422 56.5313C270.975 56.6709 270.521 56.7767 270.063 56.8481C269.615 56.9198 269.137 56.9692 268.628 56.9964C268.311 57.0127 267.994 57.0206 267.678 57.0202C265.982 57.0202 264.598 56.7938 263.526 56.3411C263.074 56.1546 262.644 55.9065 262.246 55.6021C261.79 55.253 261.394 54.8132 261.078 54.304C260.751 53.7692 260.492 53.1857 260.308 52.5702C260.147 52.0383 260.027 51.4915 259.95 50.936C259.861 50.3097 259.796 49.6796 259.753 49.0472C259.707 48.3938 259.679 47.6986 259.668 46.9615C259.664 46.711 259.662 46.4605 259.662 46.21Z" fill="#FAFAFA" stroke="#FAFAFA" stroke-width="0.944882" stroke-linecap="round"/>
<path fill-rule="evenodd" clip-rule="evenodd" d="M308.43 42.7877V44.6346H292.446C292.446 46.2281 292.507 47.5186 292.63 48.5063C292.632 48.5285 292.635 48.5508 292.638 48.573C292.677 48.8934 292.742 49.2092 292.83 49.5169C292.989 50.0639 293.221 50.5098 293.526 50.8546C293.723 51.0725 293.948 51.255 294.194 51.3955C294.606 51.6377 295.12 51.8195 295.734 51.941C296.082 52.0082 296.432 52.0607 296.784 52.0983C297.512 52.1791 298.367 52.2255 299.347 52.2375C299.51 52.2392 299.674 52.24 299.838 52.2398C300.574 52.2398 301.382 52.2217 302.262 52.1855C303.142 52.1493 304.046 52.0768 304.974 51.9682C305.388 51.9198 305.802 51.8731 306.216 51.8278C306.605 51.7848 306.974 51.746 307.322 51.7113C307.371 51.7063 307.42 51.7014 307.47 51.6966V56.2053C306.766 56.3502 305.918 56.486 304.926 56.6127C303.934 56.7395 302.894 56.8391 301.806 56.9115C300.718 56.984 299.678 57.0202 298.686 57.0202C296.606 57.0202 294.878 56.8663 293.502 56.5584C293.016 56.4522 292.537 56.3085 292.069 56.1284C291.336 55.8424 290.71 55.4788 290.19 55.0374C289.358 54.3312 288.734 53.4258 288.318 52.3213C287.958 51.3676 287.707 50.2385 287.563 48.934C287.539 48.7236 287.519 48.5127 287.502 48.3014C287.374 46.7261 287.31 44.8882 287.31 42.7877C287.31 40.8743 287.375 39.1628 287.507 37.6531C287.545 37.2088 287.591 36.7654 287.646 36.3233C287.729 35.6296 287.86 34.9443 288.038 34.2738C288.24 33.5246 288.497 32.8493 288.811 32.248C288.883 32.1099 288.958 31.9744 289.038 31.8417C289.485 31.1065 290.071 30.4936 290.755 30.0479C291.203 29.7469 291.709 29.4915 292.271 29.2818C292.289 29.2749 292.307 29.2681 292.326 29.2614C292.886 29.0612 293.459 28.9062 294.039 28.7974C294.641 28.6804 295.297 28.5929 296.008 28.5348C296.771 28.4741 297.536 28.4447 298.302 28.4466C298.931 28.4453 299.561 28.4656 300.19 28.5077C300.786 28.5492 301.339 28.6114 301.85 28.6944C302.271 28.7611 302.688 28.8506 303.102 28.9626C304.106 29.2395 304.939 29.6394 305.602 30.1622C305.759 30.2864 305.91 30.4209 306.054 30.5651C306.648 31.1678 307.117 31.9112 307.429 32.7426C307.506 32.9457 307.576 33.1526 307.638 33.3627C307.974 34.5035 308.19 35.8616 308.286 37.4369C308.382 39.0123 308.43 40.7959 308.43 42.7877ZM304.398 40.6691L303.534 41.5383V40.5061C303.534 40.0295 303.526 39.553 303.508 39.0768C303.47 38.1005 303.391 37.2823 303.27 36.6221C303.149 35.9649 302.976 35.4179 302.751 34.9811C302.653 34.7901 302.537 34.6118 302.406 34.4492C302.134 34.1211 301.801 33.8646 301.432 33.6977C301.219 33.5995 300.999 33.5237 300.774 33.4714C300.26 33.3499 299.654 33.2737 298.954 33.2428C298.704 33.232 298.455 33.2267 298.206 33.2269C297.831 33.2263 297.457 33.2361 297.083 33.2564C296.317 33.2994 295.675 33.3891 295.158 33.5257C294.464 33.709 293.927 34.0388 293.547 34.5148C293.515 34.5553 293.484 34.5968 293.454 34.6393C293.277 34.894 293.131 35.1741 293.019 35.4723C292.915 35.7401 292.829 36.0362 292.759 36.3607C292.721 36.537 292.688 36.7148 292.662 36.8937C292.613 37.221 292.575 37.5502 292.548 37.8806C292.482 38.6441 292.448 39.5397 292.446 40.5673C292.446 40.6012 292.446 40.6352 292.446 40.6691H304.398Z" fill="#FAFAFA" stroke="#FAFAFA" stroke-width="0.944882" stroke-linecap="round"/>
<path fill-rule="evenodd" clip-rule="evenodd" d="M320.142 56.5856H315.054V28.8811H319.71L319.902 33.8788H320.286C320.628 32.6882 321.078 31.718 321.636 30.968C321.754 30.808 321.881 30.6554 322.014 30.5108C322.75 29.7141 323.646 29.1708 324.702 28.8811C325.758 28.5914 326.958 28.4465 328.302 28.4465V34.0961C327.684 34.0935 327.067 34.1271 326.453 34.1968C325.153 34.3507 324.098 34.6793 323.286 35.1825C322.267 35.8149 321.472 36.8253 321.035 38.0435C320.962 38.2365 320.896 38.4328 320.838 38.632C320.656 39.2624 320.517 39.9075 320.421 40.5616C320.317 41.2384 320.243 41.974 320.197 42.7684C320.159 43.444 320.141 44.1207 320.142 44.7976V56.5856Z" fill="#FAFAFA" stroke="#FAFAFA" stroke-width="0.944882" stroke-linecap="round"/>
<defs>
<linearGradient id="paint0_linear_504_243" x1="11.757" y1="75.5422" x2="34.8723" y2="61.3329" gradientUnits="userSpaceOnUse">
<stop stop-color="#C7D2FE"/>
<stop offset="1" stop-color="#C7D2FE" stop-opacity="0"/>
</linearGradient>
<linearGradient id="paint1_linear_504_243" x1="12.213" y1="10.6711" x2="67.476" y2="14.5504" gradientUnits="userSpaceOnUse">
<stop stop-color="#4338CA"/>
<stop offset="1" stop-color="#C7D2FE"/>
</linearGradient>
</defs>
</svg>
